<svg viewBox="0 0 173 127" fill="none" xmlns="http://www.w3.org/2000/svg">
<path class="fill-primary" fill-rule="evenodd" clip-rule="evenodd" d="M34.586 11.6166V0.0878906H80.7007V11.6166H92.2294V23.1452H103.758V34.6739H115.287V69.2599H126.815V92.3173H138.344V103.846H161.401V115.375H172.93V126.903H0V115.375H11.5287V103.846H34.586V92.3173H46.1147V69.2599H57.6434V46.2026H69.172V23.1452H57.6434V11.6166H34.586ZM121.051 121.139H51.879V126.903H121.051V121.139Z" fill="#00B2E2"/>
<path class="fill-secondary" d="M46.1147 80.7881H92.2295V92.3168H46.1147V80.7881Z" fill="#00414C"/>
<path class="fill-secondary" d="M34.5859 92.3174L92.2295 92.3168L92.2293 103.846H34.5859V92.3174Z" fill="#00414C"/>
<path class="fill-secondary" d="M126.809 80.7881H103.747V103.846H126.809V80.7881Z" fill="#00414C"/>
<path fill-rule="evenodd" clip-rule="evenodd" d="M92.2295 69.2598V115.374H126.816V103.846H138.344V80.7884H126.816V69.2598H92.2295ZM103.758 80.7884H126.816V103.846H103.758V80.7884Z" fill="#FFC121"/>
</svg>
