<svg viewBox="0 0 159 128" fill="none" xmlns="http://www.w3.org/2000/svg">
<path class="fill-tertiary" d="M158.096 15.1401C152.294 17.7117 146.074 19.4475 139.533 20.2351C146.203 16.2331 151.33 9.90055 153.741 2.36263C147.505 6.05927 140.577 8.75942 133.216 10.2059C127.318 3.92165 118.928 0 109.622 0C91.7814 0 77.3002 14.4651 77.3002 32.3214C77.3002 34.8609 77.5895 37.3199 78.1359 39.6826C51.2789 38.3325 27.4756 25.4746 11.5317 5.91462C8.76726 10.672 7.17609 16.217 7.17609 22.1477C7.17609 33.3501 12.8818 43.2506 21.5449 49.0367C16.2409 48.8759 11.2585 47.4134 6.90286 45.0025C6.90286 45.1311 6.90286 45.2757 6.90286 45.4043C6.90286 61.0588 18.0411 74.1256 32.8277 77.0989C30.1115 77.8383 27.2666 78.2401 24.3093 78.2401C22.2199 78.2401 20.1948 78.0311 18.2339 77.6615C22.3485 90.5033 34.2742 99.8413 48.418 100.098C37.3601 108.761 23.4253 113.937 8.28509 113.937C5.68135 113.937 3.10976 113.776 0.570312 113.487C14.8748 122.664 31.8634 128 50.1056 128C109.541 128 142.04 78.7544 142.04 36.0502C142.04 34.6519 142.008 33.2536 141.944 31.8714C148.292 27.3069 153.757 21.6173 158.096 15.1401Z" fill="#9ADAFF"/>
</svg>
