<svg width="100%" height="100%" viewBox="0 0 131 128" fill="none" xmlns="http://www.w3.org/2000/svg">
<path class="fill-tertiary" fill-rule="evenodd" clip-rule="evenodd" d="M65.7205 0C29.7005 0 0.581787 29.3333 0.581787 65.6227C0.581787 94.6307 19.2391 119.185 45.1218 127.876C48.3578 128.529 49.5431 126.464 49.5431 124.727C49.5431 123.205 49.4365 117.991 49.4365 112.557C31.3165 116.469 27.5431 104.735 27.5431 104.735C24.6311 97.1293 20.3165 95.1747 20.3165 95.1747C14.3858 91.1547 20.7485 91.1547 20.7485 91.1547C27.3271 91.5893 30.7791 97.8907 30.7791 97.8907C36.6018 107.885 45.9845 105.061 49.7591 103.323C50.2978 99.0853 52.0245 96.152 53.8578 94.5227C39.4058 93.0013 24.2005 87.352 24.2005 62.1453C24.2005 54.9747 26.7871 49.108 30.8858 44.5453C30.2391 42.916 27.9738 36.1787 31.5338 27.1613C31.5338 27.1613 37.0338 25.4227 49.4351 33.8973C54.7446 32.4609 60.2201 31.7302 65.7205 31.724C71.2205 31.724 76.8271 32.4853 82.0045 33.8973C94.4071 25.4227 99.9071 27.1613 99.9071 27.1613C103.467 36.1787 101.2 42.916 100.554 44.5453C104.76 49.108 107.24 54.9747 107.24 62.1453C107.24 87.352 92.0351 92.892 77.4751 94.5227C79.8485 96.5867 81.8965 100.497 81.8965 106.691C81.8965 115.491 81.7898 122.553 81.7898 124.725C81.7898 126.464 82.9765 128.529 86.2111 127.877C112.094 119.184 130.751 94.6307 130.751 65.6227C130.858 29.3333 101.632 0 65.7205 0Z" fill="#9ADAFF"/>
</svg>
