<svg viewBox="0 0 180 128" fill="none" xmlns="http://www.w3.org/2000/svg">
<path class="fill-tertiary" d="M65.2314 0.000174198C62.8525 0.00974994 43.1732 0.567843 22.4126 15.9819C22.4126 15.9819 0.267944 55.7801 0.267944 104.798C0.267944 104.798 13.1855 126.924 47.1714 128C47.1714 128 52.8613 121.239 57.4748 115.4C37.9444 109.561 30.5629 97.4221 30.5629 97.4221C30.5629 97.4221 32.101 98.4975 34.8691 100.034C35.0229 100.034 35.1762 100.188 35.4838 100.341C35.9451 100.649 36.4066 100.802 36.868 101.11C40.7125 103.261 44.557 104.951 48.094 106.334C54.3991 108.946 61.9346 111.251 70.7002 112.941C82.2339 115.093 95.7665 115.861 110.53 113.095C117.757 111.712 125.139 109.715 132.829 106.488C138.211 104.49 144.208 101.571 150.513 97.4221C150.513 97.4221 142.824 109.869 122.679 115.554C127.292 121.239 132.829 127.846 132.829 127.846C166.814 126.771 179.732 104.644 179.732 104.798C179.732 55.7801 157.587 15.9819 157.587 15.9819C135.596 -0.459758 114.528 0.00136668 114.528 0.00136668L112.375 2.45985C138.518 10.2965 150.667 21.8213 150.667 21.8213C134.674 13.2163 118.988 8.91355 104.379 7.22329C93.3065 5.99401 82.6951 6.3017 73.3143 7.53098C72.3916 7.53098 71.6229 7.68441 70.7002 7.83806C65.3178 8.45271 52.2464 10.2965 35.7917 17.5185C30.1018 19.977 26.7182 21.8213 26.7182 21.8213C26.7182 21.8213 39.3284 9.68174 67.0092 1.84508L65.4714 0.00136668C65.4714 0.00136668 65.3899 -0.000462392 65.2314 0.000111436V0.000174198ZM61.3194 56.702C70.085 56.702 77.1591 64.2311 77.0053 73.6043C77.0053 82.9776 70.085 90.5073 61.3194 90.5073C52.7076 90.5073 45.6335 82.9776 45.6335 73.6043C45.6335 64.2311 52.5538 56.702 61.3194 56.702ZM117.45 56.702C126.062 56.702 133.136 64.2311 133.136 73.6043C133.136 82.9776 126.216 90.5073 117.45 90.5073C108.838 90.5073 101.764 82.9776 101.764 73.6043C101.764 64.2311 108.684 56.702 117.45 56.702Z" fill="#9ADAFF"/>
</svg>
