<svg viewBox="0 0 823 128" fill="none" xmlns="http://www.w3.org/2000/svg">
<path class="fill-primary" d="M234.721 109.611V28.9102H292.365V40.4388H303.893V51.9675H315.422V86.5535H303.893V98.0822H292.365V109.611H234.721ZM257.779 98.0822H280.836V86.5535H292.365V51.9675H280.836V40.4388H257.779V98.0822Z" fill="#00B2E2"/>
<path class="fill-primary" d="M372.585 109.611V98.0825H361.056V63.4965H372.585V51.9678H430.228V63.4965H441.757V86.5538H384.114V98.0825H430.228V109.611H372.585ZM384.114 75.0251H418.7V63.4965H384.114V75.0251Z" fill="#00B2E2"/>
<path class="fill-primary" d="M511.41 98.0825H522.938V109.611H499.881V98.0825H488.352V51.9678H511.41V98.0825ZM534.467 51.9678V98.0825H522.938V51.9678H534.467ZM569.053 51.9678V98.0825H557.524V109.611H534.467V98.0825H545.996V51.9678H569.053Z" fill="#00B2E2"/>
<path class="fill-primary" d="M650.234 40.4388V28.9102H673.291V40.4388H650.234ZM627.177 109.611V98.0822H650.234V63.4962H638.705V51.9675H673.291V98.0822H696.349V109.611H627.177Z" fill="#00B2E2"/>
<path class="fill-primary" d="M741.983 109.611V98.0825H753.512V86.5538H765.04V75.0251H776.569V63.4965H741.983V51.9678H822.684V63.4965H811.155V75.0251H799.626V86.5538H788.098V98.0825H822.684V109.611H741.983Z" fill="#00B2E2"/>
<path class="fill-primary" fill-rule="evenodd" clip-rule="evenodd" d="M34.8546 11.9398V0.411133H80.9693V11.9398H92.4979V23.4685H104.027V34.9972H115.555V69.5832H127.084V92.6405H138.613V104.169H161.67V115.698H173.199V127.227H0.268555V115.698H11.7972V104.169H34.8546V92.6405H46.3832V69.5832H57.9119V46.5258H69.4406V23.4685H57.9119V11.9398H34.8546ZM116.051 121.139H46.8789V126.904H116.051V121.139Z" fill="#00B2E2"/>
<path class="fill-secondary" d="M104.016 81.2186H127.074V104.241H104.016V81.2186Z" fill="#00414C"/>
<path class="fill-secondary" d="M92.4907 80.7891H41.86V92.3177H92.4907V80.7891Z" fill="#00414C"/>
<path class="fill-secondary" d="M92.4907 92.3177L29.5857 92.3184V104.176L92.4907 104.234V92.3177Z" fill="#00414C"/>
<path fill-rule="evenodd" clip-rule="evenodd" d="M92.4907 69.6523V115.767H127.077V104.238H138.605V81.181H127.077V69.6523H92.4907ZM104.019 81.181H127.077V104.238H104.019V81.181Z" fill="#FFC121"/>
</svg>
